{"title":"Man Of Steel 2013 AviCAM SpanishDub.avi","uid":8573780,"size":405748788,"categoryP":"video","categoryS":"movies","magnet":"?xt=urn:btih:e1341f6490988dbc61e45eb14e77a812afd0c9a3&amp;dn=Man+Of+Steel+2013+AviCAM+SpanishDub.avi&amp;tr=udp%3A%2F%2Ftracker.openbittorrent.com%3A80&amp;tr=udp%3A%2F%2Fopen.demonii.com%3A1337&amp;tr=udp%3A%2F%2Ftracker.coppersurfer.tk%3A6969&amp;tr=udp%3A%2F%2Fexodus.desync.com%3A6969","seeders":3,"leechers":0,"uploader":"globeplus","files":-1,"time":1371229048,"description":"Man Of Steel 2013 AviCAM SpanishDub.avi\n\nGeneral\n\nFormat                                   : AVI\nFormat/Info                              : Audio Video Interleave\nFile size                                : 387 MiB\nDuration                                 : 1h 39mn\nOverall bit rate                         : 542 Kbps\nWriting application                      : Lavf52.57.1\n\nVideo\n\nID                                       : 0\nFormat                                   : xvid\nCodec ID                                 : xvid\nDuration                                 : 1h 39mn\nBit rate                                 : 400 Kbps\nWidth                                    : 608 pixels\nHeight                                   : 296 pixels\nDisplay aspect ratio                     : 2.054\nFrame rate                               : 30.000 fps\nBits/(Pixel*Frame)                       : 0.074\nStream size                              : 286 MiB (74%)\n\nAudio\n\nID                                       : 1\nFormat                                   : MPEG Audio\nFormat version                           : Version 1\nFormat profile                           : Layer 3\nMode                                     : Joint stereo\nMode extension                           : MS Stereo\nCodec ID                                 : 55\nCodec ID/Hint                            : MP3\nDuration                                 : 1h 39mn\nBit rate mode                            : Constant\nBit rate                                 : 128 Kbps\nChannel(s)                               : 2 channels\nSampling rate                            : 48.0 KHz\nCompression mode                         : Lossy\nStream size                              : 91.4 MiB (24%)\nAlignment                                : Aligned on interleaves\nInterleave, duration                     : 24 ms (0.72 video frame)\n\n\n\nPremise\n\nClark Kent is a humanoid alien who after being transported to Earth from the dying planet of Krypton, was adopted as a child by Jonathan and Martha Kent. Raised with the values of his adoptive parents, he feels alienated because of his unique super powers and struggles to find his own place in life. When the world is attacked, he becomes the hero named Superman to protect Earth and its people from General Zod.\n\n\n\n* enjoy ...\n","torrent":{"xt":"urn:btih:e1341f6490988dbc61e45eb14e77a812afd0c9a3","amp;dn":"Man+Of+Steel+2013+AviCAM+SpanishDub.avi","amp;tr":["udp%3A%2F%2Ftracker.openbittorrent.com%3A80","udp%3A%2F%2Fopen.demonii.com%3A1337","udp%3A%2F%2Ftracker.coppersurfer.tk%3A6969","udp%3A%2F%2Fexodus.desync.com%3A6969"],"infoHash":"e1341f6490988dbc61e45eb14e77a812afd0c9a3","infoHashBuffer":{"type":"Buffer","data":[225,52,31,100,144,152,141,188,97,228,94,177,78,119,168,18,175,208,201,163]},"announce":[],"urlList":[]}}